<svg width="16" height="16" viewBox="0 0 16 16" fill="none" xmlns="http://www.w3.org/2000/svg">
<path fill-rule="evenodd" clip-rule="evenodd" d="M1.33334 7.99992C1.33334 4.31802 4.31811 1.33325 8.00001 1.33325C11.6819 1.33325 14.6667 4.31802 14.6667 7.99992C14.6667 11.6818 11.6819 14.6666 8.00001 14.6666C4.31811 14.6666 1.33334 11.6818 1.33334 7.99992ZM8.00001 4.66659C7.63182 4.66659 7.33334 4.96506 7.33334 5.33325C7.33334 5.70144 7.63182 5.99992 8.00001 5.99992H8.00668C8.37487 5.99992 8.67334 5.70144 8.67334 5.33325C8.67334 4.96506 8.37487 4.66659 8.00668 4.66659H8.00001ZM8.66668 7.99992C8.66668 7.63173 8.3682 7.33325 8.00001 7.33325C7.63182 7.33325 7.33334 7.63173 7.33334 7.99992V10.6666C7.33334 11.0348 7.63182 11.3333 8.00001 11.3333C8.3682 11.3333 8.66668 11.0348 8.66668 10.6666V7.99992Z" fill="#686B6E"/>
</svg>
